# xmcd
#
# Track frame offsets:
# 225
# 17492
# 30380
# 46563
# 57304
# 67562
# 77865
# 87619
# 104618
# 116843
# 127773
# 143750
# 156484
# 170239
# 180170
# 194852
#
# Disc length: 2796 seconds
#
#
# Revision: 1
# Processed by: cddbd v1.5.1PL0 Copyright (c) Steve Scherf et al.
# Submitted via: FreeRIP 2.70 
#
DISCID=d40ae910
DTITLE=Various Artist - Country - The Best of Country 3, 48 everlasting country top hits [CD1)
DYEAR=1996
DGENRE=Country
TTITLE0=John Denver - Calypso
TTITLE1=Willie Nelson - To all the girls i've loved before
TTITLE2=Don Gibson - Green, green grass of home
TTITLE3=Dolly Parton - It wasn't god who made Honky Tonk Angels
TTITLE4=Jim Reeves - Anne Marie
TTITLE5=Anne Murray - Some birds
TTITLE6=Barbara Mandrell - Release me
TTITLE7=Johnny Cash - Sunday morning coming down
TTITLE8=Dave Dudley - There ain't no easy run
TTITLE9=Donna Fargo - Wishful thinking
TTITLE10=Jeannie C. Riley - The cotton patch
TTITLE11=Charley Pride - Help me make it through the night
TTITLE12=Jeannie Seely - One day at a time
TTITLE13=Ferlin Husky - Looking at the world through a windshield
TTITLE14=Loretta Lynn - Coalminer's daughter
TTITLE15=Jerry Lee Lewis - Cold, cold heart
EXTD=(CD-1)
EXTT0=
EXTT1=
EXTT2=
EXTT3=
EXTT4=
EXTT5=
EXTT6=
EXTT7=
EXTT8=
EXTT9=
EXTT10=
EXTT11=
EXTT12=
EXTT13=
EXTT14=
EXTT15=
PLAYORDER=
